<?xml version="1.0" standalone="no"?>
<!DOCTYPE svg PUBLIC "-//W3C//DTD SVG 20010904//EN"
 "http://www.w3.org/TR/2001/REC-SVG-20010904/DTD/svg10.dtd">
<svg version="1.0" xmlns="http://www.w3.org/2000/svg"
 width="1024.000000pt" height="1024.000000pt" viewBox="0 0 1024.000000 1024.000000"
 preserveAspectRatio="xMidYMid meet">

<g transform="translate(0.000000,1024.000000) scale(0.100000,-0.100000)"
fill="#000000" stroke="none">
<path d="M5565 9586 c-104 -26 -250 -126 -355 -244 -103 -115 -242 -340 -299
-484 -43 -107 -97 -300 -123 -437 -19 -102 -22 -151 -22 -401 -1 -318 8 -409
75 -809 32 -191 37 -236 27 -249 -7 -8 -87 -80 -178 -160 -816 -716 -1135
-1106 -1306 -1597 -96 -273 -115 -519 -63 -805 52 -291 153 -517 343 -770 178
-238 362 -385 671 -538 291 -144 474 -190 795 -199 173 -5 322 6 456 33 l31 6
32 -199 c88 -556 108 -754 91 -919 -12 -118 -49 -256 -87 -326 -53 -98 -184
-227 -296 -292 -23 -14 -85 -39 -137 -57 -222 -74 -486 -38 -644 90 -43 34
-43 33 54 50 235 39 432 263 431 490 -1 253 -160 452 -412 517 -231 59 -522
-89 -635 -323 -50 -102 -67 -195 -61 -318 20 -360 273 -634 692 -748 71 -19
105 -22 290 -22 183 0 221 3 298 23 215 54 343 126 497 281 87 87 113 122 152
196 90 176 122 325 121 570 0 216 -34 448 -124 864 -23 101 -37 187 -32 191 4
4 49 25 99 47 332 145 625 412 765 698 90 185 132 432 110 647 -48 459 -283
804 -686 1006 -175 88 -326 120 -594 127 l-166 4 -12 53 c-21 89 -132 640
-138 688 l-7 45 88 80 c332 302 537 559 678 849 112 231 197 499 227 716 17
122 18 469 1 585 -43 299 -114 552 -213 755 -51 103 -73 136 -128 191 -99 99
-184 125 -306 95z m208 -669 c66 -28 134 -126 162 -234 78 -300 -150 -816
-568 -1283 -84 -94 -265 -260 -284 -260 -12 0 -25 50 -48 194 -17 105 -19 340
-5 471 39 340 220 768 409 969 122 128 244 180 334 143z m-725 -2874 c6 -43
32 -195 57 -338 34 -197 42 -261 32 -264 -6 -2 -59 -28 -117 -57 -317 -158
-545 -436 -636 -774 -26 -94 -26 -367 0 -465 73 -281 275 -493 545 -576 l74
-22 24 28 c17 19 23 37 21 58 -3 27 -12 36 -63 65 -170 94 -275 282 -275 488
0 209 89 389 265 537 66 55 199 129 257 143 26 6 27 4 42 -68 9 -40 34 -167
55 -283 22 -115 67 -354 100 -530 87 -459 141 -769 141 -805 0 -38 -12 -43
-150 -61 -133 -16 -392 -16 -490 1 -114 19 -315 86 -412 137 -182 96 -418 297
-546 468 -210 279 -282 716 -170 1035 125 354 287 573 688 931 160 142 520
429 539 429 4 0 12 -35 19 -77z m649 -1137 c265 -56 480 -223 587 -458 60
-130 71 -192 71 -388 0 -172 -1 -177 -33 -269 -72 -209 -217 -382 -440 -526
-40 -26 -75 -45 -78 -42 -2 2 -20 105 -39 228 -51 329 -154 873 -241 1272 -19
87 -34 167 -34 178 0 17 7 19 69 19 38 0 101 -7 138 -14z"/>
</g>
</svg>
